<?xml version="1.0" encoding="UTF-8"?>
<!DOCTYPE svg PUBLIC "-//W3C//DTD SVG 1.1//EN" "http://www.w3.org/Graphics/SVG/1.1/DTD/svg11.dtd">
<svg xmlns="http://www.w3.org/2000/svg" version="1.1" width="120px" height="120px" style="shape-rendering:geometricPrecision; text-rendering:geometricPrecision; image-rendering:optimizeQuality; fill-rule:evenodd; clip-rule:evenodd" xmlns:xlink="http://www.w3.org/1999/xlink">
<g><path style="opacity:1" fill="#161616" d="M 51.5,93.5 C 52.404,92.791 52.7373,91.791 52.5,90.5C 41.8333,90.5 31.1667,90.5 20.5,90.5C 17.7374,90.2562 15.5707,88.9229 14,86.5C 13.6667,76.8333 13.3333,67.1667 13,57.5C 10.5336,51.2676 8.36698,44.9342 6.5,38.5C 7.23574,36.4595 8.06908,34.4595 9,32.5C 27.3345,24.5543 46.1678,17.8877 65.5,12.5C 69.5326,12.6857 72.3659,14.6857 74,18.5C 77.1703,28.0109 80.337,37.5109 83.5,47C 82.5909,48.7892 82.4242,50.6226 83,52.5C 88.9767,49.4292 95.1434,46.7625 101.5,44.5C 103.833,46.1667 105.833,48.1667 107.5,50.5C 100.231,56.8072 92.5646,62.6405 84.5,68C 83.5494,68.7175 83.3828,69.5509 84,70.5C 87.286,74.2412 90.4527,78.0745 93.5,82C 97.9325,81.9783 102.266,81.145 106.5,79.5C 108.741,80.0708 110.408,81.4042 111.5,83.5C 108.128,86.2765 104.628,88.9432 101,91.5C 101.833,94.987 100.499,95.987 97,94.5C 94.8295,98.8441 92.1628,102.844 89,106.5C 87.3149,104.983 85.8149,103.316 84.5,101.5C 85.8333,97.5 87.1667,93.5 88.5,89.5C 86.6132,87.9596 84.7799,86.2929 83,84.5C 82.3147,87.0573 80.8147,88.8906 78.5,90C 73.9174,91.1447 69.2508,91.8113 64.5,92C 61.9432,95.6284 59.2765,99.1284 56.5,102.5C 52.4105,100.504 50.7438,97.5044 51.5,93.5 Z M 71.5,23.5 C 73.0363,28.1089 74.3696,32.7756 75.5,37.5C 73.4612,33.7337 71.7945,29.7337 70.5,25.5C 70.3284,24.5084 70.6618,23.8417 71.5,23.5 Z M 79.5,81.5 C 79.2503,83.674 78.2503,85.3406 76.5,86.5C 75.7611,86.631 75.0944,86.4643 74.5,86C 76.0832,84.2417 77.7499,82.7417 79.5,81.5 Z"/></g>
<g><path style="opacity:0.999" fill="#bce8a7" d="M 70.5,25.5 C 71.7945,29.7337 73.4612,33.7337 75.5,37.5C 75.2627,38.791 75.596,39.791 76.5,40.5C 76.2627,41.791 76.596,42.791 77.5,43.5C 77.4607,45.2239 77.794,45.5573 78.5,44.5C 79.7759,45.3864 79.7759,46.3864 78.5,47.5C 72.2171,46.7059 65.8838,46.2059 59.5,46C 55.8646,42.5996 51.6979,40.0996 47,38.5C 43.9274,40.5655 43.7607,43.0655 46.5,46C 37.1667,46.3333 27.8333,46.6667 18.5,47C 17.7562,48.0386 16.7562,48.5386 15.5,48.5C 13.9127,44.9768 13.4127,41.3101 14,37.5C 18.4398,33.9775 23.2731,31.3108 28.5,29.5C 29.1667,29.5 29.8333,29.5 30.5,29.5C 40.8961,25.5346 51.3961,21.868 62,18.5C 66.8457,18.5204 69.679,20.8538 70.5,25.5 Z"/></g>
<g><path style="opacity:1" fill="#e3e5e1" d="M 71.5,23.5 C 70.6618,23.8417 70.3284,24.5084 70.5,25.5C 69.679,20.8538 66.8457,18.5204 62,18.5C 51.3961,21.868 40.8961,25.5346 30.5,29.5C 30.5,28.8333 30.1667,28.5 29.5,28.5C 41.2546,23.8012 53.2546,19.4679 65.5,15.5C 69.3709,16.7109 71.3709,19.3775 71.5,23.5 Z"/></g>
<g><path style="opacity:1" fill="#eaede8" d="M 28.5,28.5 C 28.5,28.8333 28.5,29.1667 28.5,29.5C 23.2731,31.3108 18.4398,33.9775 14,37.5C 13.4127,41.3101 13.9127,44.9768 15.5,48.5C 14.6977,49.8847 14.0311,49.718 13.5,48C 11.4109,43.9522 10.7442,39.7855 11.5,35.5C 16.8155,32.3431 22.4822,30.0098 28.5,28.5 Z"/></g>
<g><path style="opacity:1" fill="#bae6a5" d="M 56.5,59.5 C 46.9888,63.2262 37.3221,66.5595 27.5,69.5C 25.626,69.6102 24.126,68.9436 23,67.5C 21.7273,64.5107 20.5606,61.5107 19.5,58.5C 18.6373,56.5786 17.9707,54.5786 17.5,52.5C 17.9528,51.5416 18.6195,50.7083 19.5,50C 29.1667,49.3333 38.8333,49.3333 48.5,50C 51.0017,53.3325 53.6684,56.4992 56.5,59.5 Z"/></g>
<g><path style="opacity:1" fill="#acd59c" d="M 76.5,50.5 C 74.6855,53.4074 72.0188,54.7407 68.5,54.5C 66.7041,53.2073 65.0375,51.7073 63.5,50C 68.0204,49.1864 72.3537,49.353 76.5,50.5 Z"/></g>
<g><path style="opacity:1" fill="#aec9de" d="M 76.5,50.5 C 78.7279,51.3218 79.3946,52.6552 78.5,54.5C 76.3932,55.6368 74.2265,56.6368 72,57.5C 70.3576,57.0222 69.1909,56.0222 68.5,54.5C 72.0188,54.7407 74.6855,53.4074 76.5,50.5 Z"/></g>
<g><path style="opacity:1" fill="#afd3f1" d="M 19.5,58.5 C 20.5606,61.5107 21.7273,64.5107 23,67.5C 24.126,68.9436 25.626,69.6102 27.5,69.5C 37.3221,66.5595 46.9888,63.2262 56.5,59.5C 59.228,61.2266 61.228,63.56 62.5,66.5C 60.1996,73.0912 57.5329,79.4245 54.5,85.5C 43.0645,85.9559 31.7312,85.4559 20.5,84C 20,83.5 19.5,83 19,82.5C 18.1772,74.3225 18.3439,66.3225 19.5,58.5 Z"/></g>
<g><path style="opacity:0.961" fill="#b5cfe6" d="M 79.5,81.5 C 77.7499,82.7417 76.0832,84.2417 74.5,86C 75.0944,86.4643 75.7611,86.631 76.5,86.5C 73.6965,87.6378 70.6965,87.8045 67.5,87C 69.4066,83.3473 71.9066,80.1807 75,77.5C 76.9802,78.3147 78.4802,79.648 79.5,81.5 Z"/></g>
<g><path style="opacity:0.991" fill="#e6e9eb" d="M 17.5,52.5 C 17.9707,54.5786 18.6373,56.5786 19.5,58.5C 18.3439,66.3225 18.1772,74.3225 19,82.5C 19.5,83 20,83.5 20.5,84C 31.7312,85.4559 43.0645,85.9559 54.5,85.5C 49.0403,86.8291 43.207,87.4958 37,87.5C 31.1667,87.3333 25.3333,87.1667 19.5,87C 18.6667,86.1667 17.8333,85.3333 17,84.5C 16.1745,73.6586 16.3412,62.992 17.5,52.5 Z"/></g>
<g><path style="opacity:0.077" fill="#e2e2e2" d="M 20.5,90.5 C 31.1667,90.5 41.8333,90.5 52.5,90.5C 52.7373,91.791 52.404,92.791 51.5,93.5C 41.3737,91.8421 31.0403,90.8421 20.5,90.5 Z"/></g>
</svg>
